<?xml version="1.0" encoding="utf-8"?>
<!-- Generator: Adobe Illustrator 28.0.0, SVG Export Plug-In . SVG Version: 6.00 Build 0)  -->
<svg version="1.1" id="Layer_1" xmlns="http://www.w3.org/2000/svg" xmlns:xlink="http://www.w3.org/1999/xlink" x="0px" y="0px"
	 viewBox="0 0 1728.5 473.6" style="enable-background:new 0 0 1728.5 473.6;" xml:space="preserve">
<style type="text/css">
	.st0{fill:#F26903;}
	.st1{fill:#20305A;}
</style>
<path class="st0" d="M245.6,54.9c15.5-6.3,32.2-9.3,48.9-9.5c16.6-0.3,33.3,0,50-0.1c0,99.7,0,199.5,0,299.3c-16.7,0-33.3,0-50,0
	c0-33.3-0.1-66.7,0.1-100c-15.7,20.9-36.1,38.2-58.4,51.9c-30.1,18.6-63.2,32.4-97.6,40.9c-18.7,4.6-37.9,7.5-57.1,7.2
	c-16.1-1.1-30.7-13.2-34.7-28.8c-3.9-13.9,0.5-29.8,11.4-39.4c13.2-12.6,35.4-13.8,49.9-2.7c5.8-7,10.7-14.8,14-23.2
	c17.2-42.1,34.8-84.1,52.1-126.1C187.6,93,213.9,67.5,245.6,54.9z M219.9,143.3c-17.5,42.8-35.4,85.4-53,128.2
	c-2.5,5.9-5.5,11.6-8.8,17.2c14.8-5.3,29.1-11.8,42.9-19.2c16.8-9.2,33-19.8,46.5-33.5c21.3-20.7,36.8-46.9,46.4-74.9
	c0.8-2.3,0.5-4.8,0.6-7.1c-0.1-19.6,0-39.2,0-58.8C262.9,94.6,232.5,114.5,219.9,143.3z"/>
<path class="st1" d="M393.9,98.5c10.3-1.9,22-0.6,30.1,6.7c11.7,9.5,13.1,29,2.7,39.9c-8.9,10.2-24.3,12.3-36.7,8.3
	c-8.6-2.9-16-10-18.5-18.8c-2.5-9.3-0.6-20.2,6.4-27.1C382.1,102.8,387.8,99.7,393.9,98.5z"/>
<path class="st1" d="M1054,98.6c8.6-1.6,17.9-1.3,25.7,3c6.8,3.8,12.3,10.3,13.9,18c1.8,7.8,0.6,16.6-4.3,23.2
	c-4.6,6.5-12,10.8-19.8,12c-10.6,1.8-22.6-0.6-30.3-8.6c-9.8-9.5-10.6-26.4-2.2-36.9C1041.2,103.8,1047.4,100.1,1054,98.6z"/>
<path class="st1" d="M461.4,116.6c17.8,0,35.5,0,53.3,0c0,42.1,0,84.2,0,126.4c17.3-23.3,34.6-46.6,52-69.8
	c21.9-0.1,43.9,0,65.8-0.1c-23.9,28.9-47.9,57.8-71.9,86.8c24.1,28.7,48.3,57.3,72.4,86c-22.1,0-44.1,0.1-66.2-0.1
	c-17.2-24.1-34.8-47.9-52.1-71.9c0,24,0,48,0,72c-17.8,0-35.5,0-53.3,0C461.4,269.4,461.4,193,461.4,116.6z"/>
<path class="st1" d="M662.6,193.1c12.9-12.3,30.1-19.6,47.7-21.7c20.4-2.4,42,0.1,60.1,10.4c13.2,7.4,24,18.8,30.8,32.3
	c9.1,17.8,10.8,38.6,8.5,58.2c-40,0-79.9,0-119.8,0c0.8,7.8,2.9,15.9,8.2,22c10.4,12.4,30.9,14.5,43.8,4.9c3.6-2.9,6.3-6.7,8.3-10.8
	c18.9,0,37.7,0,56.6,0c-4.4,17.8-15.3,33.9-30.3,44.5c-15,10.7-33.6,15.9-51.9,15.5c-18.9,0.4-38.2-4.8-53.6-15.9
	c-14.9-10.5-25.4-26.6-30.2-44.1c-4.2-15.4-4.7-31.8-2.3-47.5C641.2,222.9,649.4,205.6,662.6,193.1z M698.9,223.3
	c-4.9,5.3-7.6,12.2-8.7,19.3c22,0,44.1,0,66.1,0c-0.3-6.5-2-13.2-6.3-18.2C737.4,209.7,712,209.3,698.9,223.3z"/>
<path class="st1" d="M928.3,171.7c14.7-1.8,30.2-0.2,43.4,6.8c14.5,7.7,25.2,21.6,29.9,37.3c5.3,16.8,3.8,34.6,4.1,52
	c0,26,0,52,0,78c-17.7,0-35.3,0-53,0c0-31.7,0-63.3,0-95c-0.1-9.3-2.6-19.1-9.3-25.9c-5.1-5.5-12.5-8.5-20-9.1
	c-9.7-1-20.2,1.7-27.1,8.8c-6.8,6.9-9.4,16.8-9.6,26.2c0,31.7,0,63.3,0,95c-17.8,0-35.5,0-53.2,0c0-57.6,0-115.2,0-172.8
	c17.7,0,35.5,0,53.2,0c0,7.5,0,15.1,0,22.6C896.1,182,912.1,173.8,928.3,171.7z"/>
<path class="st1" d="M1186,171.6c21.9-3,45.2-0.1,64.5,11.2c17.2,9.8,30.3,26.4,36.5,45.2c3.4,10.2,4.9,21.1,4.7,31.8
	c0.3,18.8-4.9,37.8-16,53.1c-11.8,16.8-30.4,28.3-50.3,32.8c-24.2,5.3-50.7,3-72.4-9.6c-20.4-11.6-34.7-32.6-39-55.5
	c-3.5-18.7-2.6-38.5,4.1-56.4c5.3-13.7,14.1-26.1,25.8-35.1C1156,179.6,1170.8,173.8,1186,171.6z M1193,217.6
	c-12,2.9-21.7,13-24.7,24.9c-2.9,11.2-2.9,23.2,0.2,34.4c3.2,11.5,12.4,21.6,24.2,24.4c8.4,2.1,17.7,1.1,25.3-3.1
	c9-4.8,15.6-13.6,18-23.5c2.4-10.1,2.5-20.7,0-30.7c-2-8.3-6.8-15.9-13.7-20.9C1213.9,216.8,1202.9,215.2,1193,217.6z"/>
<path class="st1" d="M1377.9,171.6c21.7-3,44.8-0.2,64.1,10.9c15.3,8.6,27.5,22.4,34.4,38.5c7.5,17.2,8.8,36.6,6.2,55
	c-3,20.6-13.8,40-30,53.1c-13.2,10.5-29.4,16.8-46.1,18.7c-20,2.2-40.9-0.3-58.8-10c-18.6-9.6-32.8-27-39.1-46.9
	c-5.4-17.2-6-35.8-2.4-53.5c4.1-19.3,14.9-37.2,30.7-49.1C1348.8,179.3,1363.1,173.7,1377.9,171.6z M1385,217.6
	c-9.7,2.4-18.1,9.4-22.4,18.5c-3.4,7.4-4.6,15.7-4.4,23.8c-0.1,10,1.8,20.4,7.8,28.6c4.1,5.6,9.8,10.2,16.5,12.3
	c9.2,2.9,19.7,2.1,28.1-2.8c8.7-4.9,15-13.5,17.4-23.2c2.4-10.1,2.5-20.7-0.1-30.8c-2-8.2-6.7-15.8-13.7-20.8
	C1406,216.8,1394.9,215.2,1385,217.6z"/>
<path class="st1" d="M375.4,173.1c17.7,0,35.5,0,53.2,0c0,57.6,0,115.2,0,172.8c-17.8,0-35.5,0-53.2,0
	C375.4,288.2,375.4,230.6,375.4,173.1z"/>
<path class="st1" d="M1036.4,173.1c17.7,0,35.5,0,53.2,0c0,65.9,0,131.8,0,197.7c-0.3,14-3,28.9-12.5,39.8
	c-9.7,11-24.5,16-38.8,17.3c-10.2,0.8-20.5,0.3-30.7,0.4c0-15.1,0-30.2,0-45.2c7.4-0.5,15.1,1.2,22.2-1.5c4.7-1.8,6.6-7.1,6.5-11.7
	C1036.5,304.2,1036.4,238.6,1036.4,173.1z"/>
<path class="st1" d="M1487,172.6c19.8,0,39.6,0,59.5,0c13.2,35.9,26.5,71.7,39.7,107.5c13.3-35.8,26.3-71.7,39.5-107.5
	c19.2,0,38.4,0,57.6,0c-36.1,85-72.3,170-108.4,255c-19.1,0-38.2,0-57.4,0c13.2-29.4,26.5-58.8,39.7-88.1
	C1533.8,283.8,1510.3,228.2,1487,172.6z"/>
</svg>
